<?xml version="1.0" encoding="UTF-8" standalone="no"?>
<!-- Created with matplotlib (https://matplotlib.org/) -->

<svg
   xmlns:dc="http://purl.org/dc/elements/1.1/"
   xmlns:cc="http://creativecommons.org/ns#"
   xmlns:rdf="http://www.w3.org/1999/02/22-rdf-syntax-ns#"
   xmlns:svg="http://www.w3.org/2000/svg"
   xmlns="http://www.w3.org/2000/svg"
   xmlns:xlink="http://www.w3.org/1999/xlink"
   xmlns:sodipodi="http://sodipodi.sourceforge.net/DTD/sodipodi-0.dtd"
   xmlns:inkscape="http://www.inkscape.org/namespaces/inkscape"
   height="345pt"
   version="1.1"
   viewBox="0 0 345.00001 344.99999"
   width="345pt"
   id="svg124"
   sodipodi:docname="glyph2.svg"
   inkscape:version="0.92.3 (2405546, 2018-03-11)">
  <sodipodi:namedview
     pagecolor="#ffffff"
     bordercolor="#666666"
     borderopacity="1"
     objecttolerance="10"
     gridtolerance="10"
     guidetolerance="10"
     inkscape:pageopacity="0"
     inkscape:pageshadow="2"
     inkscape:window-width="3840"
     inkscape:window-height="2081"
     id="namedview126"
     showgrid="false"
     inkscape:zoom="1.4485868"
     inkscape:cx="200.19915"
     inkscape:cy="308.5017"
     inkscape:window-x="-9"
     inkscape:window-y="-9"
     inkscape:window-maximized="1"
     inkscape:current-layer="svg124" />
  <metadata
     id="metadata84">
    <rdf:RDF>
      <cc:Work>
        <dc:type
           rdf:resource="http://purl.org/dc/dcmitype/StillImage" />
        <dc:date>2021-03-19T14:23:32.944170</dc:date>
        <dc:format>image/svg+xml</dc:format>
        <dc:creator>
          <cc:Agent>
            <dc:title>Matplotlib v3.3.1, https://matplotlib.org/</dc:title>
          </cc:Agent>
        </dc:creator>
        <dc:title></dc:title>
      </cc:Work>
    </rdf:RDF>
  </metadata>
  <defs
     id="defs88"
     style="stroke-linecap:butt;stroke-linejoin:round">
    <style
       type="text/css"
       id="style86">*{stroke-linecap:butt;stroke-linejoin:round;}</style>
  </defs>
  <g
     style="stroke-linecap:butt;stroke-linejoin:round"
     id="axes_1"
     transform="translate(-65.753739,1.9887231)">
    <g
       style="stroke-linecap:butt;stroke-linejoin:round"
       id="PathCollection_1">
      <defs
         id="defs94">
        <path
           style="stroke-linecap:butt;stroke-linejoin:round"
           inkscape:connector-curvature="0"
           id="mbf4f6463be"
           d="M 0,125 C 33.150388,125 64.947484,111.82921 88.388348,88.388348 111.82921,64.947484 125,33.150388 125,0 125,-33.150388 111.82921,-64.947484 88.388348,-88.388348 64.947484,-111.82921 33.150388,-125 0,-125 c -33.150388,0 -64.947484,13.17079 -88.388348,36.611652 C -111.82921,-64.947484 -125,-33.150388 -125,0 c 0,33.150388 13.17079,64.947484 36.611652,88.388348 C -64.947484,111.82921 -33.150388,125 0,125 Z" />
      </defs>
      <g
         style="stroke-linecap:butt;stroke-linejoin:round"
         id="g98"
         clip-path="url(#pb64bdd3f45)">
        <use
           height="100%"
           width="100%"
           style="stroke-linecap:butt;stroke-linejoin:round"
           id="use96"
           y="174.528"
           xlink:href="#mbf4f6463be"
           x="236.16" />
      </g>
    </g>
    <g
       style="stroke-linecap:butt;stroke-linejoin:round"
       id="PathCollection_2">
      <defs
         id="defs102">
        <path
           style="stroke-linecap:butt;stroke-linejoin:round"
           inkscape:connector-curvature="0"
           id="m7d96435c40"
           d="m 0,-100 0.88293,-1.17371 0.903357,-1.16259 0.923545,-1.148 0.943378,-1.12995 0.962743,-1.10846 0.981528,-1.0836 0.999624,-1.05541 1.016924,-1.02397 1.033323,-0.98934 1.048724,-0.95163 1.063029,-0.91092 1.076148,-0.86733 1.087993,-0.82096 1.098485,-0.77196 1.107547,-0.72045 1.115112,-0.66656 1.121115,-0.61046 1.1255,-0.55231 1.128218,-0.49225 1.129229,-0.43046 1.128494,-0.36712 1.125989,-0.3024 1.121693,-0.2365 1.115596,-0.16958 1.107691,-0.10184 1.097985,-0.0335 1.08649,0.0353 1.073224,0.10433 1.058216,0.1734 1.041503,0.24232 1.023128,0.31089 1.003141,0.37894 0.981602,0.44627 0.958577,0.51267 0.934138,0.578 0.908365,0.64205 0.881344,0.70465 0.853167,0.76566 0.823933,0.82489 0.793744,0.88218 0.76271,0.93741 0.730943,0.9904 0.698559,1.04106 0.665682,1.08924 0.632433,1.13481 0.598942,1.1777 0.565337,1.21778 0.531747,1.25497 0.498307,1.2892 0.46515,1.3204 0.432407,1.348496 0.400212,1.373459 0.368698,1.395244 0.337994,1.413825 0.308228,1.429189 0.279529,1.441327 0.252018,1.45025 0.225813,1.45597 0.201033,1.458515 L 50,-86.60254 l 0.15618,1.454243 0.136314,1.44753 0.118285,1.437852 0.102178,1.425285 0.08808,1.409915 0.07606,1.391836 0.06618,1.371151 0.05852,1.34797 0.05311,1.322412 0.05,1.294602 0.04923,1.264672 0.05082,1.232758 0.05479,1.199007 0.06115,1.163564 0.06989,1.126583 0.08101,1.088222 0.09449,1.04864 0.110287,1.007998 0.128376,0.966465 0.148707,0.924205 0.171223,0.881384 0.195859,0.838172 0.222541,0.794736 0.251188,0.751242 0.281707,0.707855 0.314002,0.664738 0.347965,0.622052 0.383483,0.579953 0.420436,0.538595 0.458695,0.498127 0.498127,0.458695 0.538595,0.420436 0.579953,0.383483 0.622052,0.347965 0.664738,0.314002 0.707855,0.281707 0.751242,0.251188 0.794736,0.222541 0.838172,0.195859 0.881384,0.171223 0.924205,0.148707 0.966465,0.128376 1.007998,0.110287 1.04864,0.09449 1.088222,0.08101 1.126583,0.06989 1.163564,0.06115 1.199007,0.05479 1.232758,0.05082 1.264672,0.04923 1.294602,0.05 1.322412,0.05311 1.34797,0.05852 1.371151,0.06618 1.391836,0.07606 1.409915,0.08808 1.425285,0.102178 1.437852,0.118285 1.44753,0.136314 1.454243,0.15618 1.457925,0.177786 1.458515,0.201033 1.45597,0.225813 1.45025,0.252018 1.441327,0.279529 1.429189,0.308228 1.413825,0.337994 1.395244,0.368698 1.373459,0.400212 1.348496,0.432407 1.3204,0.46515 1.2892,0.498307 1.25497,0.531747 1.21778,0.565337 1.1777,0.598942 1.13481,0.632433 1.08924,0.665682 1.04106,0.698559 0.9904,0.730943 0.93741,0.76271 0.88218,0.793744 0.82489,0.823933 0.76566,0.853167 0.70465,0.881344 0.64205,0.908365 0.578,0.934138 0.51267,0.958577 0.44627,0.981602 0.37894,1.003141 0.31089,1.023128 0.24232,1.041503 0.1734,1.058216 0.10433,1.073224 0.0353,1.08649 -0.0335,1.097985 -0.10184,1.107691 -0.16958,1.115596 -0.2365,1.121693 -0.3024,1.125989 -0.36712,1.128494 -0.43046,1.129229 -0.49225,1.128218 -0.55231,1.1255 -0.61046,1.121115 -0.66656,1.115112 -0.72045,1.107547 -0.77196,1.098485 -0.82096,1.087993 -0.86733,1.076148 -0.91092,1.063029 -0.95163,1.048724 -0.98934,1.033323 -1.02397,1.016924 -1.05541,0.999624 -1.0836,0.981528 -1.10846,0.962743 -1.12995,0.943378 -1.148,0.923545 -1.16259,0.903357 L 100,0 98.818678,0.862378 97.633237,1.704194 96.447163,2.525558 95.263919,3.326689 94.086936,4.107924 92.9196,4.86971 91.765241,5.612603 90.627123,6.337266 89.508436,7.044467 88.412279,7.735072 87.341658,8.410045 86.29947,9.07044 l -1.010973,0.646957 -0.9771,0.634741 -0.940702,0.623822 -0.901921,0.61427 -0.860906,0.606148 -0.817809,0.59951 -0.772795,0.59441 -0.726031,0.590886 -0.677689,0.588975 -0.627949,0.588705 -0.576991,0.590094 -0.525001,0.593156 -0.472167,0.597894 -0.418679,0.604302 -0.36473,0.612373 -0.310512,0.622083 -0.25622,0.633405 -0.202043,0.646305 -0.148178,0.660739 -0.09481,0.676654 -0.04213,0.693996 0.0097,0.712695 0.06043,0.732681 0.109961,0.753874 0.158086,0.776189 0.204642,0.799532 0.249467,0.823808 0.292409,0.848912 0.333318,0.874738 0.372056,0.901171 0.408488,0.928096 0.442492,0.955392 0.473952,0.982934 0.502761,1.010597 0.528823,1.038252 0.552049,1.065768 0.572364,1.093012 0.589699,1.119855 0.603997,1.14616 0.615211,1.171797 0.623307,1.196636 0.628258,1.220543 0.63005,1.243394 0.62868,1.265061 0.624153,1.285422 0.616489,1.304359 0.605713,1.321755 L 86.60254,50 l 0.574995,1.351493 0.555159,1.363628 0.532424,1.373813 0.506872,1.381962 0.478584,1.387991 0.447661,1.391828 0.414201,1.393405 0.37832,1.392666 0.340136,1.389556 0.299773,1.384037 0.257366,1.37607 0.213054,1.365635 0.16698,1.352712 0.119294,1.337295 0.07015,1.319387 0.01971,1.298996 -0.03188,1.276146 -0.08444,1.250864 -0.137811,1.22319 -0.191824,1.193171 -0.246311,1.160865 -0.301105,1.126337 -0.356036,1.089663 -0.410937,1.050924 -0.465643,1.010212 -0.519989,0.967629 -0.573814,0.923278 -0.626961,0.877276 -0.679275,0.829743 -0.730606,0.780809 -0.780809,0.730606 -0.829743,0.679275 -0.877276,0.626961 -0.923278,0.573814 -0.967629,0.519989 -1.010212,0.465643 -1.050924,0.410937 -1.089663,0.356036 -1.126337,0.301105 -1.160865,0.246311 -1.193171,0.191824 -1.22319,0.137811 -1.250864,0.08444 -1.276146,0.03188 -1.298996,-0.01971 -1.319387,-0.07015 -1.337295,-0.119294 -1.352712,-0.16698 -1.365635,-0.213054 -1.37607,-0.257366 L 62.426342,90.830892 61.036786,90.490756 59.64412,90.112436 58.250715,89.698235 56.858887,89.250574 55.470896,88.77199 54.088934,88.265118 52.715121,87.732694 51.351493,87.177535 50,86.60254 l -1.337502,-0.591866 -1.321755,-0.605713 -1.304359,-0.616489 -1.285422,-0.624153 -1.265061,-0.62868 -1.243394,-0.63005 -1.220543,-0.628258 -1.196636,-0.623307 -1.171797,-0.615211 -1.14616,-0.603997 -1.119855,-0.589699 -1.093012,-0.572364 -1.065768,-0.552049 -1.038252,-0.528823 -1.010597,-0.502761 -0.982934,-0.473952 -0.955392,-0.442492 -0.928096,-0.408488 -0.901171,-0.372056 -0.874738,-0.333318 -0.848912,-0.292409 -0.823808,-0.249467 -0.799532,-0.204642 -0.776189,-0.158086 -0.753874,-0.109961 -0.732681,-0.06043 -0.712695,-0.0097 -0.693996,0.04213 -0.676654,0.09481 -0.660739,0.148178 -0.646305,0.202043 -0.633405,0.25622 -0.622083,0.310512 -0.612373,0.36473 -0.604302,0.418679 -0.597894,0.472167 -0.593156,0.525001 -0.590094,0.576991 -0.588705,0.627949 -0.588975,0.677689 -0.590886,0.726031 -0.59441,0.772795 -0.59951,0.817809 -0.606148,0.860906 -0.61427,0.901921 -0.623822,0.940702 -0.634741,0.9771 L 9.07044,86.29947 8.410045,87.341658 7.735072,88.412279 7.044467,89.508436 6.337266,90.627123 5.612603,91.765241 4.86971,92.9196 4.107924,94.086936 3.326689,95.263919 2.525558,96.447163 1.704194,97.633237 0.862378,98.818678 0,100 l -0.88293,1.17371 -0.903357,1.16259 -0.923545,1.148 -0.943378,1.12995 -0.962743,1.10846 -0.981528,1.0836 -0.999624,1.05541 -1.016924,1.02397 -1.033323,0.98934 -1.048724,0.95163 -1.063029,0.91092 -1.076148,0.86733 -1.087993,0.82096 -1.098485,0.77196 -1.107547,0.72045 -1.115112,0.66656 -1.121115,0.61046 -1.1255,0.55231 -1.128218,0.49225 -1.129229,0.43046 -1.128494,0.36712 -1.125989,0.3024 -1.121693,0.2365 -1.115596,0.16958 -1.107691,0.10184 -1.097985,0.0335 -1.08649,-0.0353 -1.073224,-0.10433 -1.058216,-0.1734 -1.041503,-0.24232 -1.023128,-0.31089 -1.003141,-0.37894 -0.981602,-0.44627 -0.958577,-0.51267 -0.934138,-0.578 -0.908365,-0.64205 -0.881344,-0.70465 -0.853167,-0.76566 -0.823933,-0.82489 -0.793744,-0.88218 -0.76271,-0.93741 -0.730943,-0.9904 -0.698559,-1.04106 -0.665682,-1.08924 -0.632433,-1.13481 -0.598942,-1.1777 -0.565337,-1.21778 -0.531747,-1.25497 -0.498307,-1.2892 -0.46515,-1.3204 -0.432407,-1.348496 -0.400212,-1.373459 -0.368698,-1.395244 -0.337994,-1.413825 -0.308228,-1.429189 -0.279529,-1.441327 -0.252018,-1.45025 -0.225813,-1.45597 -0.201033,-1.458515 L -50,86.60254 l -0.15618,-1.454243 -0.136314,-1.44753 -0.118285,-1.437852 -0.102178,-1.425285 -0.08808,-1.409915 -0.07606,-1.391836 -0.06618,-1.371151 -0.05852,-1.34797 -0.05311,-1.322412 -0.05,-1.294602 -0.04923,-1.264672 -0.05082,-1.232758 -0.05479,-1.199007 -0.06115,-1.163564 -0.06989,-1.126583 -0.08101,-1.088222 -0.09449,-1.04864 -0.110287,-1.007998 -0.128376,-0.966465 -0.148707,-0.924205 -0.171223,-0.881384 -0.195859,-0.838172 -0.222541,-0.794736 -0.251188,-0.751242 -0.281707,-0.707855 -0.314002,-0.664738 -0.347965,-0.622052 -0.383483,-0.579953 -0.420436,-0.538595 -0.458695,-0.498127 -0.498127,-0.458695 -0.538595,-0.420436 -0.579953,-0.383483 -0.622052,-0.347965 -0.664738,-0.314002 -0.707855,-0.281707 -0.751242,-0.251188 -0.794736,-0.222541 -0.838172,-0.195859 -0.881384,-0.171223 -0.924205,-0.148707 -0.966465,-0.128376 -1.007998,-0.110287 -1.04864,-0.09449 -1.088222,-0.08101 -1.126583,-0.06989 -1.163564,-0.06115 -1.199007,-0.05479 -1.232758,-0.05082 -1.264672,-0.04923 -1.294602,-0.05 -1.322412,-0.05311 -1.34797,-0.05852 -1.371151,-0.06618 -1.391836,-0.07606 -1.409915,-0.08808 -1.425285,-0.102178 -1.437852,-0.118285 L -85.148277,50.1562 -86.60254,50 l -1.457925,-0.177786 -1.458515,-0.201033 -1.45597,-0.225813 -1.45025,-0.252018 -1.441327,-0.279529 -1.429189,-0.308228 -1.413825,-0.337994 -1.395244,-0.368698 -1.373459,-0.400212 -1.348496,-0.432407 -1.3204,-0.46515 -1.2892,-0.498307 -1.25497,-0.531747 -1.21778,-0.565337 -1.1777,-0.598942 -1.13481,-0.632433 -1.08924,-0.665682 -1.04106,-0.698559 -0.9904,-0.730943 -0.93741,-0.76271 -0.88218,-0.793744 -0.82489,-0.823933 -0.76566,-0.853167 -0.70465,-0.881344 -0.64205,-0.908365 -0.578,-0.934138 -0.51267,-0.958577 -0.44627,-0.981602 -0.37894,-1.003141 -0.31089,-1.023128 -0.24232,-1.041503 -0.1734,-1.058216 -0.10433,-1.073224 -0.0353,-1.08649 0.0335,-1.097985 0.10184,-1.107691 0.16958,-1.115596 0.2365,-1.121693 0.3024,-1.125989 0.36712,-1.128494 0.43046,-1.129229 0.49225,-1.128218 0.55231,-1.1255 0.61046,-1.121115 0.66656,-1.115112 0.72045,-1.107547 0.77196,-1.098485 0.82096,-1.087993 0.86733,-1.076148 0.91092,-1.063029 0.95163,-1.048724 0.98934,-1.033323 1.02397,-1.016924 1.05541,-0.999624 1.0836,-0.981528 1.10846,-0.962743 1.12995,-0.943378 1.148,-0.923545 1.16259,-0.903357 L -100,0 l 1.181322,-0.862378 1.185441,-0.841816 1.186074,-0.821364 1.183244,-0.801131 1.176983,-0.781235 1.167336,-0.761786 1.154359,-0.742893 1.138118,-0.724663 1.118687,-0.707201 1.096157,-0.690605 1.070621,-0.674973 1.042188,-0.660395 1.010973,-0.646957 0.9771,-0.634741 0.940702,-0.623822 0.901921,-0.61427 0.860906,-0.606148 0.817809,-0.59951 0.772795,-0.59441 0.726031,-0.590886 0.677689,-0.588975 0.627949,-0.588705 0.576991,-0.590094 0.525001,-0.593156 0.472167,-0.597894 0.418679,-0.604302 0.36473,-0.612373 0.310512,-0.622083 0.25622,-0.633405 0.202043,-0.646305 0.148178,-0.660739 0.09481,-0.676654 0.04213,-0.693996 -0.0097,-0.712695 -0.06043,-0.732681 -0.109961,-0.753874 -0.158086,-0.776189 -0.204642,-0.799532 -0.249467,-0.823808 -0.292409,-0.848912 -0.333318,-0.874738 -0.372056,-0.901171 -0.408488,-0.928096 -0.442492,-0.955392 -0.473952,-0.982934 -0.502761,-1.010597 -0.528823,-1.038252 -0.552049,-1.065768 -0.572364,-1.093012 -0.589699,-1.119855 -0.603997,-1.14616 -0.615211,-1.171797 -0.623307,-1.196636 -0.628258,-1.220543 -0.63005,-1.243394 -0.62868,-1.265061 -0.624153,-1.285422 -0.616489,-1.304359 -0.605713,-1.321755 L -86.60254,-50 l -0.574995,-1.351493 -0.555159,-1.363628 -0.532424,-1.373813 -0.506872,-1.381962 -0.478584,-1.387991 -0.447661,-1.391828 -0.414201,-1.393405 -0.37832,-1.392666 -0.340136,-1.389556 -0.299773,-1.384037 -0.257366,-1.37607 -0.213054,-1.365635 -0.16698,-1.352712 -0.119294,-1.337295 -0.07015,-1.319387 -0.01971,-1.298996 0.03188,-1.276146 0.08444,-1.250864 0.137811,-1.22319 0.191824,-1.193171 0.246311,-1.160865 0.301105,-1.126337 0.356036,-1.089663 0.410937,-1.050924 0.465643,-1.010212 0.519989,-0.967629 0.573814,-0.923278 0.626961,-0.877276 0.679275,-0.829743 0.730606,-0.780809 0.780809,-0.730606 0.829743,-0.679275 0.877276,-0.626961 0.923278,-0.573814 0.967629,-0.519989 1.010212,-0.465643 1.050924,-0.410937 1.089663,-0.356036 1.126337,-0.301105 1.160865,-0.246311 1.193171,-0.191824 1.22319,-0.137811 1.250864,-0.08444 1.276146,-0.03188 1.298996,0.01971 1.319387,0.07015 1.337295,0.119294 1.352712,0.16698 1.365635,0.213054 1.37607,0.257366 1.384037,0.299773 1.389556,0.340136 1.392666,0.37832 1.393405,0.414201 1.391828,0.447661 1.387991,0.478584 1.381962,0.506872 1.373813,0.532424 1.363628,0.555159 1.351493,0.574995 1.337502,0.591866 1.321755,0.605713 1.304359,0.616489 1.285422,0.624153 1.265061,0.62868 1.243394,0.63005 1.220543,0.628258 1.196636,0.623307 1.171797,0.615211 1.14616,0.603997 1.119855,0.589699 1.093012,0.572364 1.065768,0.552049 1.038252,0.528823 1.010597,0.502761 0.982934,0.473952 0.955392,0.442492 0.928096,0.408488 0.901171,0.372056 0.874738,0.333318 0.848912,0.292409 0.823808,0.249467 0.799532,0.204642 0.776189,0.158086 0.753874,0.109961 0.732681,0.06043 0.712695,0.0097 0.693996,-0.04213 0.676654,-0.09481 0.660739,-0.148178 0.646305,-0.202043 0.633405,-0.25622 0.622083,-0.310512 0.612373,-0.36473 0.604302,-0.418679 0.597894,-0.472167 0.593156,-0.525001 0.590094,-0.576991 0.588705,-0.627949 0.588975,-0.677689 0.590886,-0.726031 0.59441,-0.772795 0.59951,-0.817809 0.606148,-0.860906 0.61427,-0.901921 0.623822,-0.940702 0.634741,-0.9771 0.646957,-1.010973 0.660395,-1.042188 0.674973,-1.070621 0.690605,-1.096157 0.707201,-1.118687 0.724663,-1.138118 0.742893,-1.154359 0.761786,-1.167336 0.781235,-1.176983 0.801131,-1.183244 0.821364,-1.186074 0.841816,-1.185441" />
      </defs>
      <g
         style="stroke-linecap:butt;stroke-linejoin:round"
         id="g106"
         clip-path="url(#pb64bdd3f45)">
        <use
           height="100%"
           width="100%"
           id="use104"
           y="174.528"
           xlink:href="#m7d96435c40"
           x="236.16"
           style="fill:#ffffff;stroke-linecap:butt;stroke-linejoin:round" />
      </g>
    </g>
    <g
       style="stroke-linecap:butt;stroke-linejoin:round"
       id="PathCollection_3">
      <defs
         id="defs110">
        <path
           style="stroke-linecap:butt;stroke-linejoin:round"
           inkscape:connector-curvature="0"
           id="mdd936cc730"
           d="M 0,75 C 19.890233,75 38.96849,67.097527 53.033009,53.033009 67.097527,38.96849 75,19.890233 75,0 75,-19.890233 67.097527,-38.96849 53.033009,-53.033009 38.96849,-67.097527 19.890233,-75 0,-75 c -19.890233,0 -38.96849,7.902473 -53.033009,21.966991 C -67.097527,-38.96849 -75,-19.890233 -75,0 c 0,19.890233 7.902473,38.96849 21.966991,53.033009 C -38.96849,67.097527 -19.890233,75 0,75 Z" />
      </defs>
      <g
         style="stroke-linecap:butt;stroke-linejoin:round"
         id="g114"
         clip-path="url(#pb64bdd3f45)">
        <use
           height="100%"
           width="100%"
           id="use112"
           y="174.528"
           xlink:href="#mdd936cc730"
           x="236.16"
           style="fill:#ff0000;stroke-linecap:butt;stroke-linejoin:round" />
      </g>
    </g>
  </g>
  <defs
     id="defs122">
    <clipPath
       id="pb64bdd3f45"
       style="stroke-linecap:butt;stroke-linejoin:round">
      <rect
         height="266.112"
         width="357.12"
         x="57.599998"
         y="41.472"
         id="rect119"
         style="stroke-linecap:butt;stroke-linejoin:round" />
    </clipPath>
  </defs>
</svg>
